<?xml version="1.0" standalone="no"?>
<!DOCTYPE svg PUBLIC "-//W3C//DTD SVG 20010904//EN"
 "http://www.w3.org/TR/2001/REC-SVG-20010904/DTD/svg10.dtd">
<svg version="1.0" xmlns="http://www.w3.org/2000/svg"
 width="1080.000000pt" height="100.000000pt" viewBox="0 0 1080.000000 100.000000"
 preserveAspectRatio="xMidYMid meet">
<metadata>
Created by potrace 1.16, written by Peter Selinger 2001-2019
</metadata>
<g transform="translate(0.000000,100.000000) scale(0.100000,-0.100000)"
fill="#000000" stroke="none">
<path d="M6520 883 c-95 -49 -87 -193 13 -232 105 -40 206 61 166 166 -27 70
-111 101 -179 66z m130 -22 c14 -10 31 -36 39 -58 13 -36 12 -43 -5 -79 -27
-55 -81 -81 -134 -65 -72 21 -105 93 -73 159 33 68 112 88 173 43z"/>
<path d="M6813 885 c-39 -17 -73 -68 -73 -111 0 -47 38 -96 88 -114 112 -39
213 78 152 178 -21 34 -72 62 -112 62 -13 -1 -38 -7 -55 -15z m141 -34 c25
-26 31 -39 31 -76 0 -37 -6 -50 -33 -77 -28 -28 -39 -33 -82 -33 -43 0 -54 5
-82 33 -27 27 -33 40 -33 76 0 47 27 88 70 107 37 16 96 3 129 -30z"/>
<path d="M6802 838 c-7 -7 -12 -35 -12 -63 0 -28 5 -56 12 -63 7 -7 37 -12 68
-12 31 0 61 5 68 12 7 7 12 35 12 63 0 28 -5 56 -12 63 -7 7 -37 12 -68 12
-31 0 -61 -5 -68 -12z m126 -10 c7 -7 12 -30 12 -53 0 -53 -13 -65 -72 -65
-52 0 -68 15 -68 65 0 50 16 65 68 65 27 0 53 -5 60 -12z"/>
<path d="M2167 868 c-41 -32 -44 -125 -4 -153 30 -21 44 -19 72 10 35 34 35
96 0 130 -27 28 -43 31 -68 13z"/>
<path d="M2789 861 c-21 -18 -23 -22 -11 -42 10 -15 11 -24 3 -32 -18 -18 -12
-55 11 -71 30 -21 54 -20 78 4 24 24 25 43 5 64 -9 9 -11 17 -5 21 17 11 11
54 -9 65 -28 15 -46 12 -72 -9z"/>
<path d="M3369 861 c-21 -18 -23 -22 -11 -42 10 -15 11 -24 3 -32 -18 -18 -12
-55 11 -71 30 -21 54 -20 78 4 24 24 25 43 5 64 -9 9 -11 17 -5 21 17 11 11
54 -9 65 -28 15 -46 12 -72 -9z"/>
<path d="M0 240 l0 -240 5400 0 5400 0 0 240 0 240 -5400 0 -5400 0 0 -240z
m1510 65 c0 -33 2 -35 35 -35 33 0 35 2 35 35 0 28 4 35 20 35 19 0 20 -7 20
-90 0 -83 -1 -90 -20 -90 -17 0 -20 7 -20 40 0 39 -1 40 -35 40 -34 0 -35 -1
-35 -40 0 -33 -3 -40 -20 -40 -19 0 -20 7 -20 90 0 83 1 90 20 90 16 0 20 -7
20 -35z m1161 25 c20 -11 26 -54 9 -65 -6 -4 -4 -16 6 -31 15 -22 15 -26 0
-49 -14 -22 -24 -25 -71 -25 l-55 0 0 90 0 90 46 0 c25 0 54 -5 65 -10z m3155
-15 c16 -24 15 -27 0 -44 -15 -16 -15 -19 -1 -24 20 -8 19 -46 -2 -69 -11 -13
-30 -18 -65 -18 l-48 0 0 90 0 90 50 0 c42 0 52 -4 66 -25z m835 -2 c60 -152
60 -153 40 -153 -11 0 -23 9 -26 20 -9 28 -70 28 -85 0 -12 -22 -45 -28 -38
-7 56 157 61 167 80 167 11 0 23 -11 29 -27z m-1132 -30 c-2 -23 -39 -68 -60
-74 -22 -6 -22 -7 -3 -8 12 -1 31 -9 43 -18 20 -17 21 -19 6 -40 -11 -16 -26
-23 -48 -23 -52 0 -62 12 -50 58 6 24 7 46 1 56 -5 10 -5 23 2 36 9 16 21 20
60 20 28 0 50 -3 49 -7z"/>
</g>
</svg>
